<svg width="28" height="28" viewBox="0 0 28 28" fill="none" xmlns="http://www.w3.org/2000/svg">
<path d="M8.79812 11.8146L14.0715 6.54175L19.3465 11.8167L22.4149 8.7489L14.0715 0.405518L5.73027 8.74625L8.79812 11.8141V11.8146ZM0.495575 13.9815L3.56395 10.9126L6.6318 13.9815L3.56342 17.0483L0.495575 13.9815ZM8.79812 16.1478L14.0715 21.4201L19.3465 16.1451L22.4165 19.2114L14.0715 27.5574L5.73027 19.2156L5.72603 19.2109L8.79812 16.1473V16.1478ZM21.5102 13.9815L24.5781 10.9136L27.6475 13.9815L24.5796 17.0493L21.5102 13.9815Z" fill="#F3C062"/>
<path d="M17.1844 13.9814L14.0736 10.8658L11.7721 13.1663L11.5069 13.4315L10.9623 13.9761L10.9581 13.9804L10.9623 13.9846L14.0736 17.0954L17.1866 13.9825H17.1839" fill="#F3C062"/>
</svg>
