<svg width="24" height="24" viewBox="0 0 24 24" fill="none" xmlns="http://www.w3.org/2000/svg">
<path d="M13.4546 0.937557C11.6202 0.960057 9.71725 1.6546 7.97021 3.0909H11.7422V5.11534C14.2154 3.72081 17.1137 3.63465 19.4268 5.11674L18.5743 5.57237L21.6065 7.94987L21.4307 4.04453L20.1929 4.70668C18.5621 2.28718 16.1737 0.967744 13.6363 0.937557C13.5758 0.93683 13.5152 0.93683 13.4547 0.937557H13.4546ZM0.89209 3.96685V13.9395H10.8662V3.96685H0.892184H0.89209ZM3.24906 5.18701H9.646V11.6998H8.76859V6.06306H3.24911V5.18706L3.24906 5.18701ZM3.40581 6.97417L7.62896 11.2794L7.00347 11.8932L2.78031 7.58795L3.40581 6.97417ZM13.0928 9.8687V19.8429H23.0655V9.86879H13.0928V9.8687ZM15.4483 11.0904H21.8453V17.6016H20.9694V11.9663H15.4484L15.4483 11.0904L15.4483 11.0904ZM15.605 12.8761L19.8296 17.1827L19.2042 17.795L14.9796 13.4898L15.6051 12.8762L15.605 12.8761ZM2.54893 15.86L2.72471 19.7652L3.81747 19.1807C6.67342 23.3356 11.7857 24.1722 15.9874 20.7189H12.2168V18.6944C9.77556 20.0716 6.91993 20.173 4.62165 18.7501L5.57959 18.2374L2.54893 15.86Z" fill="black"/>
</svg>
