<svg width="28" height="28" viewBox="0 0 28 28" fill="none" xmlns="http://www.w3.org/2000/svg">
<path fill-rule="evenodd" clip-rule="evenodd" d="M2.33301 8.16601C2.33301 6.23302 3.90001 4.66602 5.83301 4.66602H22.1663C24.0993 4.66602 25.6663 6.23302 25.6663 8.16602V19.8327C25.6663 21.7657 24.0993 23.3327 22.1663 23.3327H5.83301C3.90001 23.3327 2.33301 21.7657 2.33301 19.8327V8.16601ZM5.83301 6.99935C5.18868 6.99935 4.66634 7.52168 4.66634 8.16601V9.33268H23.333V8.16602C23.333 7.52168 22.8107 6.99935 22.1663 6.99935H5.83301ZM4.66634 19.8327V11.666H23.333V19.8327C23.333 20.477 22.8107 20.9994 22.1663 20.9994H5.83301C5.18868 20.9994 4.66634 20.477 4.66634 19.8327ZM9.33301 15.166C8.68868 15.166 8.16634 15.6884 8.16634 16.3327C8.16634 16.977 8.68868 17.4993 9.33301 17.4993H13.9997C14.644 17.4993 15.1663 16.977 15.1663 16.3327C15.1663 15.6884 14.644 15.166 13.9997 15.166H9.33301Z" fill="black"/>
</svg>
