<svg width="24" height="24" viewBox="0 0 24 24" fill="none" xmlns="http://www.w3.org/2000/svg">
<path fill-rule="evenodd" clip-rule="evenodd" d="M11.4559 5.12565L9.50359 8.49781C8.73166 9.83114 9.69379 11.4999 11.2344 11.4999H12.8506L8.01379 17.2435L4.22012 13.4499L3.16012 12.3899C2.12843 11.3582 1.54883 9.95891 1.54883 8.49987C1.54883 7.04084 2.12843 5.64156 3.16012 4.60987C4.19181 3.57818 5.59109 2.99858 7.05012 2.99858C8.50915 2.99858 9.90843 3.57818 10.9401 4.60987L11.4559 5.12565ZM14.7269 3.46739L11.2344 9.49988L12.8506 9.49988C14.5511 9.49988 15.4757 11.4874 14.3804 12.7881L9.43319 18.6629L12.0001 21.2299L19.7801 13.4499L20.8401 12.3899C21.3511 11.8791 21.7565 11.2727 22.033 10.6052C22.3096 9.93777 22.4519 9.22236 22.4519 8.49987C22.4519 7.77738 22.3096 7.06198 22.033 6.39452C21.7565 5.72706 21.3511 5.12063 20.8401 4.60987C20.3294 4.09888 19.7229 3.69352 19.0555 3.41696C18.388 3.14039 17.6726 2.99805 16.9501 2.99805C16.2276 2.99805 15.5122 3.14039 14.8448 3.41696C14.8053 3.43332 14.766 3.45013 14.7269 3.46739Z" fill="black"/>
</svg>
