<svg width="25" height="24" viewBox="0 0 25 24" fill="none" xmlns="http://www.w3.org/2000/svg">
<path fill-rule="evenodd" clip-rule="evenodd" d="M3.7998 18.9999V10.898C3.7998 10.3267 4.0441 9.78272 4.47108 9.40318L11.4711 3.18096C12.2288 2.50739 13.3708 2.50739 14.1285 3.18096L21.1285 9.40318C21.5555 9.78272 21.7998 10.3267 21.7998 10.898V18.9999C21.7998 20.6567 20.4567 21.9999 18.7998 21.9999H6.79981C5.14295 21.9999 3.7998 20.6567 3.7998 18.9999ZM8.7998 15.9999C8.24752 15.9999 7.7998 16.4476 7.7998 16.9999C7.7998 17.5522 8.24752 17.9999 8.7998 17.9999H16.7998C17.3521 17.9999 17.7998 17.5522 17.7998 16.9999C17.7998 16.4476 17.3521 15.9999 16.7998 15.9999H8.7998Z" fill="black"/>
</svg>
