<svg width="28" height="28" viewBox="0 0 28 28" fill="none" xmlns="http://www.w3.org/2000/svg">
<path fill-rule="evenodd" clip-rule="evenodd" d="M3.50033 14.0013C3.50033 16.5786 5.58966 18.668 8.16699 18.668L10.5003 18.668C11.1447 18.668 11.667 19.1903 11.667 19.8346C11.667 20.479 11.1447 21.0013 10.5003 21.0013L8.16699 21.0013C4.301 21.0013 1.16699 17.8673 1.16699 14.0013C1.16699 10.1353 4.301 7.0013 8.16699 7.0013L10.5003 7.0013C11.1447 7.0013 11.667 7.52363 11.667 8.16797C11.667 8.8123 11.1447 9.33463 10.5003 9.33463L8.16699 9.33463C5.58966 9.33463 3.50033 11.424 3.50033 14.0013ZM24.5005 14.002C24.5005 11.4246 22.4112 9.33528 19.8338 9.33528L17.5005 9.33528C16.8562 9.33528 16.3338 8.81295 16.3338 8.16862C16.3338 7.52429 16.8562 7.00195 17.5005 7.00195L19.8338 7.00195C23.6998 7.00195 26.8338 10.136 26.8338 14.002C26.8338 17.8679 23.6998 21.002 19.8338 21.002L17.5005 21.002C16.8562 21.002 16.3338 20.4796 16.3338 19.8353C16.3338 19.191 16.8562 18.6686 17.5005 18.6686L19.8338 18.6686C22.4111 18.6686 24.5005 16.5793 24.5005 14.002ZM9.33325 12.835C8.68892 12.835 8.16659 13.3573 8.16659 14.0016C8.16659 14.646 8.68892 15.1683 9.33325 15.1683L18.6666 15.1683C19.3109 15.1683 19.8333 14.646 19.8333 14.0016C19.8333 13.3573 19.3109 12.835 18.6666 12.835L9.33325 12.835Z" fill="black"/>
</svg>
