<svg width="24" height="24" viewBox="0 0 24 24" fill="none" xmlns="http://www.w3.org/2000/svg">
<path fill-rule="evenodd" clip-rule="evenodd" d="M7 7.5C7 4.46243 9.46243 2 12.5 2C15.5376 2 18 4.46243 18 7.5V10H18.9446C20.6014 10 21.9446 11.3431 21.9446 13V20C21.9446 21.6569 20.6014 23 18.9446 23H6.05566C4.39881 23 3.05566 21.6569 3.05566 20V13C3.05566 11.3431 4.39881 10 6.05566 10H7V7.5ZM9 10H16V7.5C16 5.567 14.433 4 12.5 4C10.567 4 9 5.567 9 7.5V10ZM5.05566 13C5.05566 12.4477 5.50338 12 6.05566 12H18.9446C19.4968 12 19.9446 12.4477 19.9446 13V20C19.9446 20.5523 19.4968 21 18.9446 21H6.05566C5.50338 21 5.05566 20.5523 5.05566 20V13Z" fill="white"/>
</svg>
