<svg width="22" height="22" viewBox="0 0 22 22" fill="none" xmlns="http://www.w3.org/2000/svg">
<path fill-rule="evenodd" clip-rule="evenodd" d="M11 21.5C16.799 21.5 21.5 16.799 21.5 11C21.5 5.20101 16.799 0.5 11 0.5C5.20101 0.5 0.5 5.20101 0.5 11C0.5 16.799 5.20101 21.5 11 21.5ZM13.4227 4.53849C13.4227 5.87672 12.3379 6.96157 10.9997 6.96157C9.66143 6.96157 8.57658 5.87672 8.57658 4.53849C8.57658 3.20026 9.66143 2.11541 10.9997 2.11541C12.3379 2.11541 13.4227 3.20026 13.4227 4.53849ZM12.4997 17.4617C12.4997 18.29 11.8282 18.9615 10.9999 18.9615C10.1716 18.9615 9.50011 18.29 9.50011 17.4617C9.50011 16.7742 9.96267 16.1948 10.5935 16.0176C10.0414 15.0521 9.10142 14.3403 7.9873 14.0856C9.28431 13.722 10.3368 12.7689 10.8274 11.5348L10.6461 11.3536L6.99966 7.70713V15.5H5.99966V6.50003V5.29292L6.85322 6.14647L10.9997 10.2929L15.1461 6.14647L15.9997 5.29292V6.50003V15.5H14.9997V7.70714L11.3532 11.3536L11.1748 11.532C11.6712 12.7655 12.714 13.7184 14.012 14.0856C12.9027 14.3415 11.9675 15.0563 11.4123 16.0193C12.0401 16.1985 12.4997 16.7764 12.4997 17.4617Z" fill="url(#paint0_linear_1834_24991)"/>
<defs>
<linearGradient id="paint0_linear_1834_24991" x1="6.5" y1="1.25" x2="11" y2="21.5" gradientUnits="userSpaceOnUse">
<stop stop-color="#F27C4A"/>
<stop offset="1" stop-color="#F4946A"/>
</linearGradient>
</defs>
</svg>
