<svg width="17" height="19" viewBox="0 0 17 19" fill="none" xmlns="http://www.w3.org/2000/svg">
<path fill-rule="evenodd" clip-rule="evenodd" d="M15.7259 1.13639C15.981 1.35076 16.1282 1.66688 16.1282 2.00004V12.5348C16.3646 12.9408 16.5 13.4129 16.5 13.9165C16.5 15.4353 15.2688 16.6665 13.75 16.6665C12.2312 16.6665 11 15.4353 11 13.9165C11 12.3978 12.2312 11.1665 13.75 11.1665C13.7908 11.1665 13.8314 11.1674 13.8718 11.1692V3.3423L5.62821 4.78166V15.75C5.62821 15.9916 5.55228 16.2155 5.42298 16.399C5.13131 17.6046 4.04522 18.5 2.75 18.5C1.23122 18.5 0 17.2688 0 15.75C0 14.2313 1.23122 13 2.75 13C2.96384 13 3.17199 13.0244 3.37179 13.0706V3.83337C3.37179 3.28515 3.76589 2.81628 4.30595 2.72198L14.8059 0.888649C15.1341 0.831345 15.4709 0.922028 15.7259 1.13639Z" fill="black"/>
</svg>
