<svg width="22" height="22" viewBox="0 0 22 22" fill="none" xmlns="http://www.w3.org/2000/svg">
<path d="M4.14551 15.9224V19.8327L8.0558 18.8666L11 21.8108L13.9442 18.8666L17.8545 19.8327V15.9224L21.8108 14.9103L19.8327 11L21.8108 7.08973L17.8545 6.07765V2.16736L13.9442 3.13343L11 0.189209L8.0558 3.13343L4.14551 2.16736V6.07765L0.189209 7.08973L2.16736 11L0.189209 14.9103L4.14551 15.9224ZM3.91549 10.126L3.04142 8.33182L4.60554 7.96379C5.06557 7.87178 5.42593 7.64943 5.68662 7.29674C5.94731 6.94405 6.07765 6.53768 6.07765 6.07765V4.69755L7.54976 5.11158H8.0558C8.57717 5.11158 9.0372 4.91223 9.4359 4.51353L11 2.94942L12.5641 4.51353C12.9628 4.91223 13.4229 5.11158 13.9442 5.11158C14.1283 5.11158 14.2969 5.08091 14.4503 5.01957L15.9224 4.69755V6.07765C15.9224 6.53768 16.0527 6.94405 16.3134 7.29674C16.5741 7.64943 16.9345 7.87178 17.3945 7.96379L18.9586 8.33182L18.0845 10.126C17.7779 10.7087 17.7779 11.2914 18.0845 11.8741L18.9586 13.6682L17.3945 14.0362C16.9345 14.1283 16.5741 14.3506 16.3134 14.7033C16.0527 15.056 15.9224 15.4624 15.9224 15.9224V17.3025L14.4503 16.8885H13.9442C13.4229 16.8885 12.9628 17.0878 12.5641 17.4865L11 19.0506L9.4359 17.4865C9.0372 17.0878 8.57717 16.8885 8.0558 16.8885C7.87178 16.8885 7.7031 16.9191 7.54976 16.9805L6.07765 17.3025V15.9224C6.07765 15.4624 5.94731 15.056 5.68662 14.7033C5.42593 14.3506 5.06557 14.1283 4.60554 14.0362L3.04142 13.6682L3.91549 11.8741C4.22218 11.2914 4.22218 10.7087 3.91549 10.126ZM10.0339 14.3583L14.6343 9.71192C15.0637 9.28256 15.0637 8.82252 14.6343 8.33182C14.1743 7.93312 13.7142 7.93312 13.2542 8.33182L10.0339 11.5981L8.74585 10.31C8.28582 9.91127 7.82578 9.91127 7.36575 10.31C6.96705 10.77 6.96705 11.23 7.36575 11.6901L10.0339 14.3583Z" fill="black"/>
</svg>
