<svg width="24" height="24" viewBox="0 0 24 24" fill="none" xmlns="http://www.w3.org/2000/svg">
<path fill-rule="evenodd" clip-rule="evenodd" d="M16.2929 9.70726C16.6834 10.0978 17.3166 10.0978 17.7071 9.70726C18.0976 9.31673 18.0976 8.68357 17.7071 8.29304L12.7071 3.29304L12 2.58594L11.2929 3.29304L6.29289 8.29304C5.90237 8.68357 5.90237 9.31673 6.29289 9.70726C6.68342 10.0978 7.31658 10.0978 7.70711 9.70726L11 6.41436L11 16.0002C11 16.5524 11.4477 17.0002 12 17.0002C12.5523 17.0002 13 16.5524 13 16.0002L13 6.41436L16.2929 9.70726ZM5 14.0002C5 13.4479 4.55228 13.0002 4 13.0002C3.44772 13.0002 3 13.4479 3 14.0002V18.0002C3 19.657 4.34315 21.0002 6 21.0002H18C19.6569 21.0002 21 19.657 21 18.0002V14.0002C21 13.4479 20.5523 13.0002 20 13.0002C19.4477 13.0002 19 13.4479 19 14.0002V18.0002C19 18.5524 18.5523 19.0002 18 19.0002H6C5.44772 19.0002 5 18.5524 5 18.0002V14.0002Z" fill="#7630F7"/>
</svg>
