<svg width="24" height="24" viewBox="0 0 24 24" fill="none" xmlns="http://www.w3.org/2000/svg">
<path fill-rule="evenodd" clip-rule="evenodd" d="M18 8C19.6569 8 21 6.65685 21 5C21 3.34315 19.6569 2 18 2C16.3431 2 15 3.34315 15 5C15 5.19655 15.0189 5.38868 15.055 5.57468C15.0042 5.59403 14.9543 5.61778 14.9058 5.64608L8.08582 9.62608C8.03743 9.65431 7.99231 9.68598 7.95055 9.7206C7.42607 9.27136 6.74473 9 6 9C4.34315 9 3 10.3431 3 12C3 13.6569 4.34315 15 6 15C6.74486 15 7.42631 14.7285 7.95083 14.2792C7.99266 14.3138 8.03788 14.3455 8.08637 14.3738L14.9164 18.3538C14.9617 18.3802 15.0083 18.4027 15.0558 18.4213C15.0192 18.6085 15 18.802 15 19C15 20.6569 16.3431 22 18 22C19.6569 22 21 20.6569 21 19C21 17.3431 19.6569 16 18 16C17.2575 16 16.578 16.2697 16.0542 16.7165C16.0137 16.6834 15.97 16.653 15.9233 16.6258L9.09332 12.6458C9.0451 12.6177 8.99549 12.594 8.94499 12.5748C8.98109 12.3888 9 12.1966 9 12C9 11.8033 8.98106 11.6109 8.94491 11.4248C8.99563 11.4054 9.04545 11.3817 9.09387 11.3535L15.9139 7.37345C15.9622 7.34525 16.0073 7.31361 16.049 7.27903C16.5736 7.72849 17.2551 8 18 8Z" fill="black"/>
</svg>
