<svg width="24" height="24" viewBox="0 0 24 24" fill="none" xmlns="http://www.w3.org/2000/svg">
<path d="M2.2202 9.21784L6.7142 4.72284C6.84119 4.59582 7.00954 4.51859 7.18865 4.50519C7.36776 4.4918 7.54573 4.54312 7.6902 4.64984L7.7752 4.72184L12.2792 9.21684C12.4125 9.35067 12.4904 9.52987 12.4973 9.71863C12.5042 9.90739 12.4396 10.0918 12.3165 10.235C12.1933 10.3783 12.0207 10.4697 11.833 10.4912C11.6454 10.5127 11.4565 10.4626 11.3042 10.3508L11.2202 10.2788L7.9972 7.06184L7.9972 18.7578C7.99698 18.9388 7.93138 19.1135 7.81248 19.2498C7.69358 19.3862 7.5294 19.475 7.3502 19.4998L7.2492 19.5068C7.06796 19.5068 6.89286 19.4412 6.75627 19.3221C6.61968 19.2029 6.53085 19.0384 6.5062 18.8588L6.4992 18.7568L6.4982 7.05884L3.2812 10.2768C3.15421 10.4039 2.98585 10.4811 2.80675 10.4945C2.62764 10.5079 2.44967 10.4566 2.3052 10.3498L2.2212 10.2768C2.09418 10.1498 2.01695 9.98149 2.00355 9.80238C1.99016 9.62328 2.04148 9.44531 2.1482 9.30084L2.2212 9.21684L6.7152 4.72184L2.2212 9.21684L2.2202 9.21784ZM16.6502 4.49984L16.7502 4.49284C16.9316 4.4926 17.107 4.55813 17.2438 4.67727C17.3805 4.79642 17.4695 4.96111 17.4942 5.14084L17.5012 5.24284L17.5002 16.9388L20.7202 13.7178C20.8472 13.5908 21.0155 13.5136 21.1946 13.5002C21.3738 13.4868 21.5517 13.5381 21.6962 13.6448L21.7802 13.7168C21.9075 13.8439 21.9849 14.0124 21.9983 14.1918C22.0117 14.3711 21.9602 14.5493 21.8532 14.6938L21.7812 14.7778L17.2842 19.2778C17.1572 19.4049 16.9889 19.4821 16.8097 19.4955C16.6306 19.5089 16.4527 19.4575 16.3082 19.3508L16.2242 19.2778L11.7202 14.7778C11.5872 14.6438 11.5097 14.4646 11.5031 14.276C11.4964 14.0873 11.5612 13.9031 11.6844 13.7601C11.8076 13.6171 11.9802 13.5258 12.1677 13.5044C12.3553 13.483 12.544 13.5332 12.6962 13.6448L12.7802 13.7168L16.0002 16.9348V5.24284C16.0003 5.0613 16.0662 4.88595 16.1857 4.74932C16.3052 4.61268 16.4703 4.52404 16.6502 4.49984L16.7502 4.49284L16.6502 4.49984Z" fill="white"/>
</svg>
