<svg width="27" height="21" viewBox="0 0 27 21" fill="none" xmlns="http://www.w3.org/2000/svg">
<path d="M25.5536 3.88066L20.3072 1.0203C20.1884 0.954532 20.0549 0.919679 19.919 0.918945H16.6755C16.4605 0.918945 16.2542 1.00438 16.1022 1.15644C15.9501 1.30851 15.8647 1.51476 15.8647 1.72982C15.8647 2.37499 15.6084 2.99373 15.1522 3.44994C14.696 3.90614 14.0772 4.16244 13.432 4.16244C12.7869 4.16244 12.1681 3.90614 11.7119 3.44994C11.2557 2.99373 10.9994 2.37499 10.9994 1.72982C10.9994 1.51476 10.914 1.30851 10.7619 1.15644C10.6099 1.00438 10.4036 0.918945 10.1886 0.918945H6.94507C6.80887 0.919509 6.67502 0.954368 6.55585 1.0203L1.31052 3.88066C0.936603 4.07826 0.65631 4.41608 0.531095 4.82003C0.405881 5.22398 0.445965 5.66111 0.64256 6.03555L2.59575 9.76658C2.73777 10.0348 2.95065 10.259 3.21121 10.4146C3.47178 10.5703 3.77005 10.6515 4.07356 10.6494H6.13419V18.7581C6.13419 19.1883 6.30506 19.6008 6.60919 19.9049C6.91333 20.209 7.32583 20.3799 7.75594 20.3799H19.1082C19.5383 20.3799 19.9508 20.209 20.2549 19.9049C20.559 19.6008 20.7299 19.1883 20.7299 18.7581V10.6494H22.7915C23.0951 10.6515 23.3933 10.5703 23.6539 10.4146C23.9145 10.259 24.1273 10.0348 24.2694 9.76658L26.2226 6.03555C26.4191 5.66098 26.459 5.22377 26.3336 4.81979C26.2082 4.41582 25.9277 4.07809 25.5536 3.88066ZM4.07356 9.02767C4.05858 9.02838 4.04384 9.02371 4.03201 9.0145L2.08895 5.30374L6.13419 3.09614V9.02767H4.07356ZM19.1082 18.7581H7.75594V2.54069H9.45877C9.64585 3.45612 10.1434 4.27884 10.8672 4.8697C11.591 5.46055 12.4967 5.78327 13.431 5.78327C14.3654 5.78327 15.2711 5.46055 15.9949 4.8697C16.7187 4.27884 17.2162 3.45612 17.4033 2.54069H19.1082V18.7581ZM22.8331 9.01348C22.8275 9.01854 22.8209 9.0224 22.8138 9.02484C22.8066 9.02728 22.7991 9.02824 22.7915 9.02767H20.7299V3.09614L24.7762 5.30374L22.8331 9.01348Z" fill="black"/>
</svg>
