<svg width="100" height="56" viewBox="0 0 100 56" fill="none" xmlns="http://www.w3.org/2000/svg">
<g clip-path="url(#clip0_4192_102197)">
<path fill-rule="evenodd" clip-rule="evenodd" d="M13.3708 17.202C13.1141 16.7575 12.4725 16.7575 12.2158 17.202L8.2732 24.0308C7.94418 24.6007 7.28307 24.8707 6.62503 24.8707C3.77082 24.8707 1.45703 27.1844 1.45703 30.0387C1.45703 32.8929 3.77082 35.2067 6.62503 35.2067C9.47924 35.2067 11.793 32.8929 11.793 30.0387C11.793 28.751 12.6594 27.2046 13.9471 27.2046H17.9908C18.5041 27.2046 18.825 26.6489 18.5683 26.2043L13.3708 17.202ZM14.3412 30.123C14.8151 29.1249 16.0084 28.7001 17.0065 29.174L21.0492 31.0938C22.0473 31.5678 22.4721 32.761 21.9982 33.7591L19.9897 37.9886C19.5157 38.9866 18.3225 39.4115 17.3244 38.9376L13.2817 37.0178C12.2836 36.5438 11.8588 35.3505 12.3327 34.3525L14.3412 30.123Z" fill="url(#paint0_radial_4192_102197)"/>
</g>
<path d="M28.4151 33.2269H25.1616V20.7641H28.4151V33.2269Z" fill="black"/>
<path d="M38.9994 33.2269H30.2345V31.3068L34.8569 26.0444H30.3945V23.6087L38.8216 23.6265V25.5466L34.1991 30.809H38.9994V33.2269Z" fill="black"/>
<path d="M45.1109 33.3336C44.1864 33.3336 43.3271 33.1618 42.533 32.818C41.7389 32.4743 41.0959 31.938 40.604 31.2091C40.1121 30.4801 39.8662 29.5468 39.8662 28.4089C39.8662 27.3185 40.1003 26.4088 40.5685 25.6799C41.0722 24.9214 41.7241 24.3702 42.5241 24.0265C43.3242 23.6769 44.1864 23.502 45.1109 23.502C46.0295 23.502 46.8888 23.6739 47.6888 24.0176C48.4948 24.3554 49.1526 24.9006 49.6622 25.6532C50.1363 26.3762 50.3734 27.2948 50.3734 28.4089C50.3734 29.049 50.2726 29.6653 50.0711 30.2579C49.8756 30.8446 49.5645 31.3691 49.1378 31.8313C48.717 32.2936 48.1748 32.661 47.511 32.9336C46.8473 33.2003 46.0472 33.3336 45.1109 33.3336ZM45.1109 30.8446C45.8221 30.8446 46.3465 30.6105 46.6843 30.1423C47.0221 29.6742 47.191 29.1082 47.191 28.4445C47.191 27.7926 47.0251 27.2326 46.6932 26.7644C46.3613 26.2962 45.8339 26.0622 45.1109 26.0622C44.6724 26.0622 44.299 26.1688 43.9909 26.3822C43.6827 26.5896 43.4486 26.874 43.2886 27.2355C43.1286 27.5911 43.0486 27.9941 43.0486 28.4445C43.0486 29.1912 43.2412 29.7779 43.6264 30.2046C44.0116 30.6313 44.5064 30.8446 45.1109 30.8446Z" fill="black"/>
<path d="M58.1372 33.3336C56.9164 33.3336 55.9505 32.8832 55.2393 31.9824V33.2269H52.0747V20.0352H55.2393V24.8532C55.9267 23.9524 56.869 23.502 58.0661 23.502C58.8543 23.502 59.5921 23.6828 60.2795 24.0443C60.967 24.4058 61.5241 24.9717 61.9507 25.7421C62.3478 26.477 62.5463 27.3837 62.5463 28.4623C62.5463 29.0904 62.4634 29.6979 62.2974 30.2846C62.1374 30.8653 61.8796 31.3839 61.5241 31.8402C61.1744 32.2965 60.7211 32.661 60.164 32.9336C59.6069 33.2003 58.9313 33.3336 58.1372 33.3336ZM57.2838 30.7735C58.0068 30.7735 58.5343 30.5394 58.8661 30.0712C59.198 29.6031 59.3639 29.043 59.3639 28.3912C59.3639 27.7393 59.195 27.1763 58.8573 26.7022C58.5195 26.2281 57.995 25.991 57.2838 25.991C56.5964 25.991 56.0838 26.2281 55.746 26.7022C55.4082 27.1763 55.2393 27.7393 55.2393 28.3912C55.2393 29.1971 55.4408 29.7957 55.8438 30.1868C56.2468 30.5779 56.7268 30.7735 57.2838 30.7735Z" fill="black"/>
<path d="M65.7562 22.5598C65.1991 22.5598 64.7813 22.3879 64.5028 22.0442C64.2243 21.7005 64.085 21.3093 64.085 20.8708C64.085 20.3019 64.2539 19.8782 64.5917 19.5996C64.9295 19.3211 65.3177 19.1818 65.7562 19.1818C66.1947 19.1818 66.5829 19.3211 66.9207 19.5996C67.2585 19.8782 67.4274 20.3019 67.4274 20.8708C67.4274 21.3093 67.2881 21.7005 67.0096 22.0442C66.7311 22.3879 66.3133 22.5598 65.7562 22.5598ZM67.3207 33.2269H64.1739V23.6087H67.3207V33.2269Z" fill="black"/>
<path d="M72.8939 33.3869C72.3131 33.3869 71.7679 33.2684 71.2583 33.0314C70.7486 32.7943 70.3397 32.4121 70.0315 31.8847C69.7234 31.3572 69.5693 30.655 69.5693 29.7779V20.0352H72.7339V29.6357C72.7339 30.2875 73.0124 30.6135 73.5695 30.6135C73.8421 30.6135 74.1443 30.5305 74.4762 30.3646L74.7429 32.978C74.1028 33.2506 73.4865 33.3869 72.8939 33.3869Z" fill="black"/>
<path d="M77.4755 22.5598C76.9184 22.5598 76.5006 22.3879 76.2221 22.0442C75.9436 21.7005 75.8043 21.3093 75.8043 20.8708C75.8043 20.3019 75.9732 19.8782 76.311 19.5996C76.6488 19.3211 77.037 19.1818 77.4755 19.1818C77.914 19.1818 78.3022 19.3211 78.64 19.5996C78.9778 19.8782 79.1467 20.3019 79.1467 20.8708C79.1467 21.3093 79.0074 21.7005 78.7289 22.0442C78.4504 22.3879 78.0326 22.5598 77.4755 22.5598ZM79.04 33.2269H75.8932V23.6087H79.04V33.2269Z" fill="black"/>
<path d="M85.1288 33.3692C84.228 33.3692 83.4665 33.1173 82.8442 32.6136C82.222 32.1098 81.9109 31.3365 81.9109 30.2935V26.1688H80.5775V24.0709H81.9109V21.4042H85.0577V24.0709H87.5467V26.1688H85.0577V29.7957C85.0577 30.4713 85.3184 30.809 85.8399 30.809C86.2192 30.809 86.6459 30.7024 87.12 30.489L87.7245 32.7291C86.9422 33.1558 86.077 33.3692 85.1288 33.3692Z" fill="black"/>
<path d="M90.6495 36.8182C89.5828 36.8182 88.6346 36.4864 87.8049 35.8226L89.1205 33.6358C89.5116 33.9914 89.9383 34.1692 90.4006 34.1692C90.9339 34.1692 91.3191 33.9262 91.5562 33.4403L91.7873 32.9958L87.8049 23.6087H91.0584L93.3518 29.8668L95.3964 23.6087H98.5432L94.4185 34.1692C93.7192 35.9352 92.4629 36.8182 90.6495 36.8182Z" fill="black"/>
<defs>
<radialGradient id="paint0_radial_4192_102197" cx="0" cy="0" r="1" gradientUnits="userSpaceOnUse" gradientTransform="translate(13.2991 28.6668) rotate(90) scale(10.4646 11.1752)">
<stop stop-color="#552BFF"/>
<stop offset="1" stop-color="#CCFF00" stop-opacity="0.98"/>
</radialGradient>
<clipPath id="clip0_4192_102197">
<rect width="20.735" height="22.2628" fill="white" transform="translate(1.45703 16.8686)"/>
</clipPath>
</defs>
</svg>
