<svg width="24" height="24" viewBox="0 0 24 24" fill="none" xmlns="http://www.w3.org/2000/svg">
<path fill-rule="evenodd" clip-rule="evenodd" d="M7 7.5C7 4.46243 9.46243 2 12.5 2C14.5071 2 16.263 3.07507 17.2235 4.68077C17.5946 5.30116 17.075 6 16.3521 6C15.9313 6 15.5597 5.74818 15.3083 5.4108C14.6703 4.55455 13.6499 4 12.5 4C10.567 4 9 5.567 9 7.5V10H18.9446C20.6014 10 21.9446 11.3431 21.9446 13V20C21.9446 21.6569 20.6014 23 18.9446 23H6.05566C4.39881 23 3.05566 21.6569 3.05566 20V13C3.05566 11.3431 4.39881 10 6.05566 10H7V7.5ZM8 12H6.05566C5.50338 12 5.05566 12.4477 5.05566 13V20C5.05566 20.5523 5.50338 21 6.05566 21H18.9446C19.4968 21 19.9446 20.5523 19.9446 20V13C19.9446 12.4477 19.4968 12 18.9446 12H8Z" fill="white"/>
</svg>
