<svg width="24" height="24" viewBox="0 0 24 24" fill="none" xmlns="http://www.w3.org/2000/svg">
<path fill-rule="evenodd" clip-rule="evenodd" d="M6 9L11 5V19L6 15H2V9H6ZM16.2473 7.75296C15.8568 7.36238 15.2236 7.36228 14.833 7.75275C14.4425 8.14321 14.4424 8.77638 14.8328 9.16696C15.5827 9.91707 16.004 10.9343 16.004 11.995C16.004 13.0556 15.5827 14.0728 14.8328 14.823C14.4424 15.2135 14.4425 15.8467 14.833 16.2372C15.2236 16.6276 15.8568 16.6275 16.2473 16.237C17.3721 15.1118 18.004 13.5859 18.004 11.995C18.004 10.404 17.3721 8.87813 16.2473 7.75296Z" fill="white"/>
</svg>
