<svg width="25" height="24" viewBox="0 0 25 24" fill="none" xmlns="http://www.w3.org/2000/svg">
<path fill-rule="evenodd" clip-rule="evenodd" d="M21.5 8.004C21.445 8 21.384 8 21.32 8H18.795C16.727 8 14.958 9.628 14.958 11.75C14.958 13.872 16.728 15.5 18.795 15.5H21.32C21.384 15.5 21.445 15.5 21.502 15.496C21.927 15.4704 22.3282 15.2911 22.6309 14.9916C22.9335 14.6921 23.117 14.2927 23.147 13.868C23.151 13.808 23.151 13.743 23.151 13.683V9.817C23.151 9.757 23.151 9.692 23.147 9.632C23.117 9.20726 22.9335 8.80793 22.6309 8.50842C22.3282 8.2089 21.927 8.02963 21.502 8.004H21.5ZM18.572 12.75C19.104 12.75 19.535 12.302 19.535 11.75C19.535 11.198 19.104 10.75 18.572 10.75C18.039 10.75 17.608 11.198 17.608 11.75C17.608 12.302 18.039 12.75 18.572 12.75Z" fill="#AFAFAF"/>
<path d="M20.9423 17.5H18.7939C15.7023 17.5 12.9569 15.0572 12.9569 11.75C12.9569 8.44276 15.7023 6 18.7939 6H20.9422C20.7628 5.51337 20.5108 5.10078 20.1553 4.74455C19.5148 4.10498 18.6889 3.7991 17.5723 3.64855L20.9423 17.5ZM20.9423 17.5C20.7628 17.9871 20.5107 18.3998 20.1557 18.7541L20.1551 18.7547C19.5148 19.3959 18.6893 19.7009 17.5721 19.8515C16.4729 19.999 15.057 20 13.2059 20H11.0939C9.24274 20 7.82584 19.999 6.7277 19.8515C5.61108 19.7009 4.78515 19.3951 4.14457 18.7556C3.50493 18.115 3.19903 17.2891 3.04846 16.1725L20.9423 17.5ZM4.14446 4.74355C3.50485 5.38414 3.19898 6.21008 3.04843 7.32673L4.14446 4.74355ZM4.14446 4.74355C4.78499 4.104 5.61085 3.79812 6.72737 3.64756C7.82678 3.50102 9.24295 3.5 11.0939 3.5H13.2059C15.0571 3.5 16.474 3.50103 17.5721 3.64852L4.14446 4.74355ZM3.04842 16.1722C2.90093 15.073 2.8999 13.6571 2.8999 11.806V11.694C2.8999 9.8429 2.90093 8.42597 3.04842 7.3268V16.1722ZM6.51602 15.6339C6.75044 15.8683 7.06838 16 7.3999 16C7.73142 16 8.04937 15.8683 8.28379 15.6339C8.51821 15.3995 8.6499 15.0815 8.6499 14.75V8.75C8.6499 8.41848 8.51821 8.10054 8.28379 7.86612C8.04937 7.6317 7.73142 7.5 7.3999 7.5C7.06838 7.5 6.75044 7.6317 6.51602 7.86612C6.2816 8.10054 6.1499 8.41848 6.1499 8.75V14.75C6.1499 15.0815 6.2816 15.3995 6.51602 15.6339Z" fill="#AFAFAF" stroke="#AFAFAF"/>
</svg>
