<svg width="24" height="24" viewBox="0 0 24 24" fill="none" xmlns="http://www.w3.org/2000/svg">
<path fill-rule="evenodd" clip-rule="evenodd" d="M6 13.4141V14.9998C6 15.5521 6.44772 15.9998 7 15.9998H8.58579C8.851 15.9998 9.10536 15.8945 9.29289 15.707L17.2929 7.70695C17.6834 7.31643 17.6834 6.68327 17.2929 6.29274L15.7071 4.70696C15.3166 4.31643 14.6834 4.31643 14.2929 4.70696L6.29289 12.707C6.10536 12.8945 6 13.1488 6 13.4141ZM4 18.9998C3.44772 18.9998 3 19.4476 3 19.9998C3 20.5521 3.44772 20.9998 4 20.9998H20C20.5523 20.9998 21 20.5521 21 19.9998C21 19.4476 20.5523 18.9998 20 18.9998H4Z" fill="black"/>
</svg>
